PathFileType	4	(X/Y/Z)	C:\Users\u0145647\OneDrive - KU Leuven\KU Leuven\c3d2osim\CP4\T0\Data\Processed\ViconC3D_CP4_2\CP4_T0_cmj_T2_gapFilled.trc
DataRate	CameraRate	NumFrames	NumMarkers	Units	OrigDataRate	OrigDataStartFrame	OrigNumFrames
100.000000	100.000000	6	47	mm	100.000000	240	638
Frame#	Time	C7			T10			CLAV			STRN			LSHO			RSHO			RBAK			LASI			RASI			LPSI			RPSI			LLAT			RLAT			LF1			LF2			LF3			LTHI			LKNE			LMEK			RF1			RF2			RF3			RTHI			RKNE			RMEK			LT1			LT2			LT3			LTIB			LANK			LMM			RT1			RT2			RT3			RTIB			RANK			RMM			LHEE			LSTL			LLCA			LTOE			LCM5			RHEE			RSTL			RLCA			RTOE			RCM5
		X1	Y1	Z1	X2	Y2	Z2	X3	Y3	Z3	X4	Y4	Z4	X5	Y5	Z5	X6	Y6	Z6	X7	Y7	Z7	X8	Y8	Z8	X9	Y9	Z9	X10	Y10	Z10	X11	Y11	Z11	X12	Y12	Z12	X13	Y13	Z13	X14	Y14	Z14	X15	Y15	Z15	X16	Y16	Z16	X17	Y17	Z17	X18	Y18	Z18	X19	Y19	Z19	X20	Y20	Z20	X21	Y21	Z21	X22	Y22	Z22	X23	Y23	Z23	X24	Y24	Z24	X25	Y25	Z25	X26	Y26	Z26	X27	Y27	Z27	X28	Y28	Z28	X29	Y29	Z29	X30	Y30	Z30	X31	Y31	Z31	X32	Y32	Z32	X33	Y33	Z33	X34	Y34	Z34	X35	Y35	Z35	X36	Y36	Z36	X37	Y37	Z37	X38	Y38	Z38	X39	Y39	Z39	X40	Y40	Z40	X41	Y41	Z41	X42	Y42	Z42	X43	Y43	Z43	X44	Y44	Z44	X45	Y45	Z45	X46	Y46	Z46	X47	Y47	Z47

240	2.39	-103.7	1480.8	-155.46	-76.127	1227.2	-195.73	-116.04	1395.7	-43.074	-123.61	1247.2	-20.996	88.016	1449.7	-60.152	-294.18	1444.1	-128.84	-215.06	1412.4	-207.72	-54.925	956.18	-40.008	-238.78	971.95	-117.27	-43.43	1009.6	-211.66	-109.99	1017.8	-240.02	18.346	1027.5	-61.291	-251.9	1054.8	-176.88	58.407	714.93	-48.702	53.88	758.08	-64.991	71.628	711.24	-79.568	122.04	648.7	-51.694	75.246	503.05	-56.961	NaN	NaN	NaN	-296.12	702.15	-193.19	-300.19	736.81	-175.93	-271.24	730.89	-231.44	-341.27	644.83	-196.03	-300.24	518.3	-130.01	NaN	NaN	NaN	130.87	357.79	-157.05	108.05	378.16	-104.8	120.35	401.19	-148.51	162.17	278.62	-123.14	150.49	138.12	-252.86	63.453	127.14	-236.53	-339.85	384.12	-185.47	-320.27	416.22	-150.53	-327.58	434.4	-198.44	-391.92	319.62	-191.99	-360.46	146.9	-263.09	-275.78	144.22	-243.63	105.33	127.94	-305.76	72.918	98.798	-248.27	150.26	108.43	-256.62	124.86	58.552	-144.69	168.32	58.973	-157.41	-317.9	151.1	-311.96	-284.93	111.19	-257.45	-362.45	120.04	-264.92	-342.39	63.076	-154.11	-392.61	64.435	-182.34
241	2.4	-103.25	1483.3	-152.5	-75.648	1230.4	-194.44	-116.37	1397.8	-40.664	-123.96	1249.2	-20.104	87.249	1452.2	-56.525	-293.83	1447.6	-126.39	-214.41	1416.2	-205.18	-53.585	959.5	-41.334	-236.78	974.56	-115.46	-45.906	1014.6	-212.65	-113.11	1023.3	-240.42	18.848	1030.1	-63.429	-253.56	1057.4	-174.61	59.988	718.97	-51.991	54.957	761.96	-68.221	72.313	715.16	-83.016	123.51	652.53	-56.719	76.329	506.95	-60.157	NaN	NaN	NaN	-298.08	705.26	-187.57	-300.56	739.78	-170.26	-274.74	734.21	-227.41	-343.76	648.33	-187.45	-299.71	521.09	-125.73	NaN	NaN	NaN	131.11	360.36	-158.97	108.88	381.46	-106.84	120.45	404.12	-151.25	163.73	282.28	-124.66	150.37	138.66	-251.47	63.745	127.6	-234	-339.7	386.29	-180.46	-319.74	418.67	-146.05	-328.83	436.8	-193.29	-391.57	321.47	-185.39	-361.24	149.66	-258.44	-276.47	147.03	-239.89	104.81	127.04	-303.51	72.67	98.968	-244.92	150.32	108.72	-254.71	126.95	60.974	-141.52	169.94	61.737	-154.89	-319.27	153.56	-307.76	-285.76	113.69	-253.45	-363.08	122.6	-260.13	-342.67	66.624	-149.3	-393.21	68.182	-177.25
242	2.41	-103.18	1485	-149.28	-76.024	1233.1	-193.63	-116.57	1398.9	-38.113	-123.96	1249.9	-19.129	86.996	1453.6	-52.997	-294.03	1449.5	-123.31	-214.2	1419	-202.3	-51.5	961.44	-42.631	-234.4	975.97	-113.81	-48.46	1018.6	-213.96	-116.34	1027.8	-240.89	20.277	1031.9	-66.354	-254.85	1059	-172.51	61.404	721.17	-55.775	56.353	764.19	-71.849	73.191	717.36	-87.267	124.62	654.45	-62.196	76.959	509.36	-63.365	NaN	NaN	NaN	-300.01	708.25	-181.1	-300.8	742.45	-163.63	-279.61	737.14	-222.75	-346.36	651.92	-177.91	-299.22	523.14	-122.66	NaN	NaN	NaN	131.03	361.79	-160.92	109.05	383.4	-108.61	120.08	405.73	-153.67	164.55	284.02	-125.43	149.71	138.35	-249.73	63.392	126.73	-230.22	-339.4	387.69	-176.55	-318.94	420.14	-142.57	-329.57	438	-189.49	-391.1	322.77	-180.74	-361.5	151.06	-253.23	-276.64	148.3	-235.17	103.11	125.26	-300.63	72.53	97.904	-241.12	149.83	108.37	-252.58	129.53	62.468	-138.29	172.27	63.75	-152.51	-319.74	154.39	-302.72	-286.02	114.98	-248.4	-363.91	124.18	-254.63	-342.57	69.056	-143.56	-393.06	70.905	-171.11
243	2.42	-103.61	1486.2	-145.84	-76.985	1235.5	-193.44	-116.8	1398.9	-35.248	-123.76	1249.3	-18.194	87.157	1453.8	-49.755	-294.65	1450	-119.77	-214.48	1420.6	-199.13	-48.865	962.55	-44.159	-232.3	976.41	-112.65	-50.93	1020.7	-215.72	-119.28	1030.8	-241.41	22.459	1032.5	-70.618	-255.55	1059.7	-170.6	62.893	721.91	-59.913	58.01	765.12	-76.136	74.006	718.04	-91.622	125.75	654.76	-67.517	77.377	510.66	-66.309	NaN	NaN	NaN	-301.45	710.86	-174.59	-300.83	744.81	-157.04	-284.44	739.64	-217.61	-348.4	655.01	-168.13	-298.31	524.46	-120.7	NaN	NaN	NaN	130.52	361.7	-162.52	109.57	384.61	-110.18	119.59	405.8	-155.95	164.75	284.7	-125.72	149.28	137.71	-248.28	62.915	124.84	-226.3	-338.96	388.34	-173.72	-318.41	421.24	-140.23	-329.49	438.47	-187.15	-390.68	323.44	-176.92	-361.15	150.97	-247.54	-276.42	148.2	-229.45	100.95	122.75	-297.41	72.089	95.958	-236.85	149.04	107.08	-250.21	132.26	62.698	-134.82	174.66	64.683	-150.28	-319.5	153.8	-297.05	-285.78	114.78	-242.27	-363.42	123.86	-248.5	-342.89	70.217	-136.9	-393.01	72.001	-164.54
244	2.43	-104.2	1486.9	-142.04	-78.253	1237.3	-193.29	-117.05	1398	-32.488	-123.44	1247.8	-17.275	87.59	1453.1	-46.947	-295.52	1449.4	-115.89	-215.22	1421.3	-195.7	-46.156	962.77	-45.664	-230.7	976.28	-111.9	-53.023	1021.6	-217.53	-121.33	1031.6	-242.53	24.281	1033.3	-74.883	-255.66	1059.9	-169.14	64.398	721.9	-64.082	59.582	765.24	-80.554	74.749	717.83	-96.112	126.5	654.42	-72.919	77.729	510.88	-69.437	NaN	NaN	NaN	-302.51	713.14	-168.85	-300.47	746.45	-151.24	-288.7	741.5	-212.65	-349.48	657.4	-159.45	-297.42	525.03	-119.86	NaN	NaN	NaN	129.8	360.58	-164.09	109.62	384.36	-112.03	118.95	404.83	-158.24	165.15	284.71	-126.54	147.78	135.59	-246.12	62.19	122.12	-222.04	-338.41	388.31	-171.84	-318	421.76	-138.76	-329.05	438.25	-186.04	-390.24	323.1	-174.1	-360.64	149.79	-241.62	-275.95	147.04	-223.02	98.544	119.57	-293.87	71.343	93.111	-232.37	147.79	104.76	-247.56	134.72	61.217	-131.42	176.35	63.724	-148.02	-318.69	151.92	-290.96	-285.29	113.38	-235.53	-363.34	122.75	-242.14	-343.12	69.981	-129.88	-392.95	71.878	-157.86
245	2.44	-104.81	1487	-138.37	-79.502	1238.3	-193.08	-117.23	1396.4	-29.713	-123.1	1245.5	-15.885	88.05	1451.6	-44.292	-296.52	1447.7	-111.89	-216.21	1421.3	-192.23	-43.813	962.26	-46.944	-229.14	975.74	-111.54	-54.505	1020.7	-219.39	-122.31	1030.2	-244.13	25.621	1032.8	-78.796	-255.42	1059.6	-168.3	65.494	720.81	-68.341	60.902	764.53	-84.916	75.401	716.73	-100.41	127.33	653.13	-78.028	78.066	510.24	-72.607	NaN	NaN	NaN	-302.93	713.59	-164.63	-299.57	746.98	-146.95	-291.58	742.22	-208.66	-349.9	658.17	-153.4	-297.2	524.95	-119.88	NaN	NaN	NaN	129.22	358.57	-166.21	109.62	383.43	-113.89	118.39	403.14	-160.94	165.49	283.92	-127.56	145.49	132.47	-243.41	60.958	118.65	-217.89	-337.69	387.23	-170.72	-317.48	421.28	-138.04	-327.77	436.83	-186.16	-389.87	322.4	-172.15	-360.03	147.58	-235.61	-275.25	144.73	-216.64	95.834	116.03	-290.09	69.987	89.544	-228.04	146.16	101.57	-244.66	135.59	56.837	-128.68	176.83	60.094	-145.81	-317.43	148.81	-284.83	-284.48	110.95	-228.75	-362.36	120.32	-235.91	-343.07	68.127	-123.06	-392.65	70.36	-151.3
